Coordinates
version=1
nRows=12
nColumns=34
inDegrees=yes

Units are S.I. units (second, meters, Newtons, ...)
If the header above contains a line with 'inDegrees', this indicates whether rotational values are in degrees (yes) or radians (no).

endheader
time	pelvis_tilt	pelvis_list	pelvis_rotation	pelvis_tx	pelvis_ty	pelvis_tz	hip_flexion_r	hip_adduction_r	hip_rotation_r	knee_angle_r	ankle_angle_r	subtalar_angle_r	mtp_angle_r	hip_flexion_l	hip_adduction_l	hip_rotation_l	knee_angle_l	ankle_angle_l	subtalar_angle_l	mtp_angle_l	lumbar_extension	lumbar_bending	lumbar_rotation	arm_flex_r	arm_add_r	arm_rot_r	elbow_flex_r	pro_sup_r	arm_flex_l	arm_add_l	arm_rot_l	elbow_flex_l	pro_sup_l
      2.41666670	      1.81424873	      6.56282759	     -5.22276904	      0.04312268	      0.80038100	      0.00041669	     34.32008585	      9.17655691	      4.87458232	     61.61039462	     31.65899871	    -15.10159992	      0.00000000	     45.85403845	      0.20744006	     -2.57197195	      8.19673911	     -3.28610872	     -8.26382132	      0.00000000	    -25.89912690	      0.00652406	      2.19849332	     82.86076907	     -0.11607126	     61.18580475	    108.02905283	     92.41213303	     88.79753538	      3.49804695	     72.21608355	    112.91041463	     67.14750162
      2.43333330	      1.55192392	      6.39388660	     -5.30432072	      0.04238334	      0.78977498	     -0.00191480	     35.93959017	      9.39154463	      4.40529395	     64.01162438	     32.01121913	    -14.79628336	      0.00000000	     47.14695264	     -0.09670802	     -2.56978653	      9.08750920	     -3.01066039	     -8.29436100	      0.00000000	    -26.40108159	      0.30595961	      1.88569965	     84.15013762	      0.08759463	     62.47332268	    109.42941651	     92.69463852	     89.27977984	      2.46855017	     71.74284042	    113.89800497	     67.84551648
      2.45000000	      1.37623308	      6.22346816	     -5.46263368	      0.03675780	      0.78845958	     -0.00029308	     37.19475901	      9.84073231	      4.40387302	     65.46597250	     32.15552365	    -14.55481502	      0.00000000	     47.85567397	     -0.50546317	     -2.70878482	      9.31277557	     -3.23981010	     -8.38222010	      0.00000000	    -27.26485821	      0.36540665	      1.64505600	     85.31535342	      0.27780491	     62.36128804	    109.64503260	     92.76373927	     90.18711273	      1.79303554	     71.18718892	    113.42937725	     68.03099233
      2.46666670	      0.93495262	      6.17763308	     -5.42245196	      0.04035029	      0.78051844	      0.00004262	     38.62777106	      9.94910670	      3.94628155	     67.06358982	     32.84340184	    -14.11362288	      0.00000000	     48.49324935	     -0.74076329	     -2.64578314	      9.07533071	     -3.43843731	     -8.47004718	      0.00000000	    -27.58989608	      0.58115404	      2.00449505	     86.37441458	      0.04149828	     63.50392121	    110.32770217	     93.01402031	     90.05086000	      2.15557423	     70.87727117	    114.55280766	     68.68427353
      2.48333330	      0.73876142	      6.08287667	     -5.54925431	      0.04151198	      0.77394840	      0.00153193	     39.11413768	     10.32031070	      3.82906126	     67.80073392	     33.35128183	    -14.24182285	      0.00000000	     48.73470846	     -1.04927565	     -2.31774159	      8.50579696	     -3.65554720	     -8.10314422	      0.00000000	    -28.01617367	      0.55395042	      2.27721780	     86.76630923	     -0.33678748	     63.21001230	    110.15755216	     93.02073565	     89.86083908	      2.07632749	     70.87273630	    114.65081917	     68.78605917
      2.50000000	      0.18862473	      5.89212456	     -5.65994710	      0.04148414	      0.76887176	      0.00214520	     40.06777713	     10.62359179	      3.40593616	     68.68742348	     34.74412322	    -12.86715327	      0.00000000	     49.34470362	     -1.52431214	     -2.28028423	      8.08315974	     -3.25523736	     -7.30989436	      0.00000000	    -28.15731354	      0.82211238	      2.87334274	     86.83641869	     -0.88893018	     62.73772320	    110.51891025	     93.09607198	     89.62152944	      2.40242592	     70.48415863	    114.79114683	     69.48766425
      2.51666670	     -0.03478321	      5.73462217	     -6.16613700	      0.03840935	      0.76291167	      0.00101861	     40.94632091	     10.98321666	      3.15765618	     69.93601772	     35.05167372	    -12.89892685	      0.00000000	     49.41543519	     -2.06929844	     -1.91681957	      7.47436533	     -3.04508734	     -7.11239073	      0.00000000	    -28.72052921	      0.94732157	      3.01252222	     87.24006345	     -0.72845263	     62.58093290	    110.72988600	     93.10807172	     89.97139514	      2.28864775	     70.38650737	    114.65959505	     69.58981991
      2.53333330	     -0.17515434	      5.47068964	     -6.50817133	      0.03951292	      0.75797975	      0.00117766	     41.67299069	     11.23034919	      2.75991512	     71.31830445	     35.91123466	    -11.88708342	      0.00000000	     49.80839467	     -2.64689786	     -1.92656859	      7.69937282	     -2.32589209	     -6.58295170	      0.00000000	    -29.33316613	      1.21863100	      3.26481855	     87.86271561	     -0.86051499	     63.04798562	    112.18244889	     93.25873517	     90.68299627	      2.76218342	     70.74954614	    115.42394176	     70.36033239
      2.55000000	     -0.21248875	      5.37895944	     -6.93538996	      0.03673884	      0.75067127	      0.00074713	     42.56677090	     11.42847059	      2.46300805	     72.83872266	     36.08589838	    -12.02081347	      0.00000000	     50.01541051	     -3.09898218	     -1.64803663	      7.60016580	     -1.89351413	     -6.52144906	      0.00000000	    -29.85548220	      1.32615067	      3.60041510	     88.27972805	     -0.55563243	     63.08898677	    112.09255050	     93.27941020	     91.08855090	      3.30018425	     70.87176593	    115.58894199	     70.49892426
      2.56666670	     -0.21396733	      5.28788516	     -7.12807089	      0.03885154	      0.74715543	      0.00026433	     43.44058327	     11.39482567	      2.13148970	     74.30962957	     36.24351386	    -12.06729143	      0.00000000	     50.11869309	     -3.43652307	     -1.39033690	      7.56516805	     -1.53892520	     -6.44819680	      0.00000000	    -30.35734551	      1.55700053	      3.75705405	     88.70499396	     -0.74832188	     63.06916896	    111.78316926	     93.29429997	     91.45850662	      3.40339642	     70.99628489	    115.62633167	     70.63249506
      2.58333330	     -0.72672501	      5.30385095	     -6.95182433	      0.03780837	      0.73973973	      0.00074967	     44.77019499	     11.28263872	      1.59082537	     75.48342227	     36.29468661	    -11.68932226	      0.00000000	     51.12251087	     -3.43943257	     -0.89316330	      8.30973047	     -0.99859007	     -6.63430522	      0.00000000	    -30.44597099	      1.68617838	      3.39079544	     89.14433439	     -0.50368957	     63.69321747	    112.02577910	     93.36642605	     92.22084805	      3.43089939	     71.53232109	    115.95087168	     71.09889355
      2.60000000	     -0.85602821	      5.30955690	     -7.25745180	      0.03526663	      0.73504200	      0.00204061	     45.88374378	     11.45402783	      1.33914066	     76.70332438	     35.92433142	    -11.38362468	      0.00000000	     51.43412258	     -3.75872291	     -0.50491098	      8.34685984	     -0.63182719	     -6.73143794	      0.00000000	    -30.97429368	      1.65279524	      3.29812492	     89.44719598	     -0.13485662	     63.55802274	    112.16211413	     93.37944760	     92.77459179	      3.33482938	     71.47203879	    115.86190103	     71.21201075
